HIERARCHY
ROOT Hips
{
	OFFSET 0.000000 0.000000 0.000000 
	CHANNELS 6 Xposition Yposition Zposition Yrotation Zrotation Xrotation 
	JOINT Lumbar
	{
		OFFSET 0.000000 0.000000 0.000000 
		CHANNELS 3 Zrotation Xrotation Yrotation
		JOINT Neck
		{
			OFFSET 0.000000 0.445665 0.000000 
			CHANNELS 3 Zrotation Xrotation Yrotation
			End Site
			{
				OFFSET 0.000000 0.227535 0.000000 
			}
		}
		JOINT RightShoulder
		{
			OFFSET 0.019635 0.377685 0.194865 
			CHANNELS 3 Zrotation Xrotation Yrotation
			JOINT RightElbow
			{
				OFFSET 0.000000 -0.243375 0.000000 
				CHANNELS 2 Zrotation Yrotation
				JOINT RightWrist
				{
					OFFSET 0.000000 -0.264825 0.000000 
					CHANNELS 2 Zrotation Xrotation
					End Site
					{
						OFFSET 0.006600 -0.176220 0.000990 
					}
				}
			}
		}
		JOINT LeftShoulder
		{
			OFFSET 0.019635 0.377685 -0.194865 
			CHANNELS 3 Zrotation Xrotation Yrotation
			JOINT LeftElbow
			{
				OFFSET 0.000000 -0.243375 0.000000 
				CHANNELS 2 Zrotation Yrotation
				JOINT LeftWrist
				{
					OFFSET 0.000000 -0.264825 0.000000 
					CHANNELS 2 Zrotation Xrotation
					End Site
					{
						OFFSET 0.006600 -0.176220 -0.000990 
					}
				}
			}
		}
	}
	JOINT RightHip
	{
		OFFSET 0.052140 -0.069960 0.075570 
		CHANNELS 3 Zrotation Xrotation Yrotation
		JOINT RightKnee
		{
			OFFSET 0.000000 -0.402270 0.000000 
			CHANNELS 1 Zrotation
			JOINT RightAnkle
			{
				OFFSET 0.000000 -0.404085 0.000000 
				CHANNELS 3 Zrotation Xrotation Yrotation
				End Site
				{
					OFFSET 0.204105 -0.089430 0.008415 
				}
			}
		}
	}
	JOINT LeftHip
	{
		OFFSET 0.052140 -0.069960 -0.075570 
		CHANNELS 3 Zrotation Xrotation Yrotation
		JOINT LeftKnee
		{
			OFFSET 0.000000 -0.402270 0.000000 
			CHANNELS 1 Zrotation
			JOINT LeftAnkle
			{
				OFFSET 0.000000 -0.404085 0.000000 
				CHANNELS 3 Zrotation Xrotation Yrotation
				End Site
				{
					OFFSET 0.204105 -0.089430 -0.008415 
				}
			}
		}
	}
}
MOTION
Frames: 30
Frame Time: 0.02
0.07946 -0.03627 0.11682 -175.91863 -25.07669 10.06972 41.57214 -1.23563 -5.39022 -14.68578 -17.5971 -2.11991 -59.53149 -51.7615 7.38909 88.9967 88.23918 11.25067 -1.28068 -44.71435 55.30013 -10.35098 95.36767 -84.56989 13.51593 2.28376 43.66291 1.38413 -22.62855 -54.36232 -7.69503 -2.46593 -3.48673 32.06368 -9.8451 32.04342 -29.41859 -6.55778 0.37932 2.44517
0.0807 -0.03557 0.11527 -176.13793 -24.91523 9.94261 41.29426 -1.22641 -4.91948 -15.76254 -17.22767 -2.11991 -59.83309 -50.15177 8.51239 89.53212 88.05097 10.84041 -1.06327 -48.79837 52.2831 -7.42524 97.39823 -85.66997 13.35304 1.9703 44.49197 1.51631 -22.17745 -55.53281 -7.99129 -2.49077 -3.51348 31.95606 -9.7501 31.79097 -29.33549 -6.5562 0.42759 2.46791
0.08218 -0.03472 0.1137 -176.28198 -24.69551 9.78627 40.9133 -1.21775 -4.44858 -16.76619 -16.89642 -2.11991 -60.38125 -48.98706 10.19477 90.66915 87.57001 9.27156 -1.06993 -51.65086 48.88972 -5.27691 99.16742 -86.92385 12.67526 1.59875 45.48432 1.63559 -21.67873 -56.91835 -8.34022 -2.52124 -3.54547 31.79152 -9.63921 31.4751 -29.22584 -6.54398 0.45614 2.48136
0.08356 -0.03392 0.11215 -176.45353 -24.50371 9.63652 40.57739 -1.20543 -3.99035 -17.79269 -16.55353 -2.11992 -60.79594 -47.64984 11.62801 91.50516 87.20218 8.20184 -0.97355 -55.00364 45.69282 -2.80259 101.02544 -88.17316 12.26697 1.24165 46.39574 1.76104 -21.22589 -58.16644 -8.65154 -2.5507 -3.57518 31.65291 -9.52921 31.1837 -29.12574 -6.53219 0.48956 2.49707
0.08491 -0.03317 0.11056 -176.65067 -24.30381 9.5148 40.24751 -1.20766 -3.47809 -18.86652 -16.18601 -2.11992 -61.29144 -46.17736 13.06114 92.47408 86.956 7.25155 -0.88163 -58.62427 42.34603 -0.169 103.00791 -89.16343 11.7105 0.93356 47.3393 1.88553 -20.67023 -59.5972 -9.02067 -2.57428 -3.60483 31.5112 -9.44514 30.91418 -29.0352 -6.52009 0.52656 2.51456
0.08637 -0.03229 0.10905 -176.77762 -24.10839 9.32738 39.88124 -1.17947 -3.07833 -19.82179 -15.87899 -2.11992 -61.67901 -45.09438 14.61758 93.30209 86.3803 5.78543 -0.83474 -61.38761 39.24147 1.93209 104.66797 -90.70946 11.3498 0.51307 48.2523 2.00856 -20.31838 -60.68328 -9.28263 -2.61085 -3.63559 31.36478 -9.30367 30.57977 -28.91926 -6.51285 0.5567 2.52864
0.08806 -0.0311 0.10773 -176.72966 -23.9315 8.97113 39.43904 -1.06937 -2.99367 -20.4823 -15.73058 -2.11992 -61.7322 -44.99682 16.39514 93.60169 84.869 3.06121 -0.8467 -62.08743 36.86351 2.73718 105.52195 -93.91821 11.51655 -0.23869 49.05263 2.13405 -20.52983 -60.88084 -9.22596 -2.68606 -3.66961 31.20401 -9.00577 30.11937 -28.735 -6.52814 0.57233 2.5354
0.08984 -0.02978 0.10648 -176.61393 -23.76301 8.54873 38.96413 -0.92824 -3.0217 -21.02263 -15.64169 -2.11992 -61.66624 -45.27253 18.26875 93.7348 83.04739 -0.12168 -0.89803 -61.9638 34.75669 3.02595 106.05537 -97.64571 11.91172 -1.09461 49.81392 2.25807 -20.94879 -60.70105 -9.06122 -2.77332 -3.70424 31.04373 -8.65055 29.59021 -28.52736 -6.55032 0.58363 2.53992
0.09159 -0.02851 0.10521 -176.52935 -23.59589 8.15332 38.50479 -0.79987 -2.99524 -21.60841 -15.52497 -2.11992 -61.63972 -45.36862 20.08787 93.937 81.42543 -3.02066 -0.93851 -62.21367 32.55078 3.55984 106.72532 -101.03224 12.30492 -1.88097 50.58516 2.38033 -21.28161 -60.61853 -8.95234 -2.85237 -3.73762 30.89319 -8.32349 29.06603 -28.33319 -6.56776 0.59931 2.54657
0.0933 -0.02726 0.10392 -176.44078 -23.40399 7.77036 38.03876 -0.67721 -2.9821 -22.23167 -15.4127 -2.11992 -61.68036 -45.52834 21.98423 94.18912 79.54795 -6.28113 -0.95779 -62.42546 30.21925 4.03876 107.43259 -104.88557 12.29341 -2.76595 51.3954 2.51163 -21.5835 -60.86039 -8.81716 -2.94328 -3.7754 30.69775 -7.98909 28.64475 -28.12478 -6.59097 0.60446 2.54835
0.09511 -0.02594 0.10268 -176.3452 -23.26748 7.34552 37.58039 -0.53527 -2.96862 -22.74762 -15.305 -2.11993 -61.55384 -45.63067 23.7206 94.28869 78.13092 -8.87912 -1.02678 -62.53509 28.23122 4.5 107.97952 -107.86625 13.13188 -3.46599 52.11257 2.62486 -21.9932 -60.32984 -8.70999 -3.01212 -3.80398 30.59773 -7.6539 28.00092 -27.94243 -6.60437 0.6301 2.55956
0.09715 -0.02441 0.10152 -176.24924 -23.27389 6.82687 37.15085 -0.34786 -2.92121 -23.01086 -15.19365 -2.11993 -60.95725 -45.55045 25.11463 94.01426 78.07588 -9.56122 -1.23016 -62.5848 27.02582 5.20521 108.25108 -108.50164 16.72903 -3.65987 52.58579 2.67913 -22.70539 -57.79799 -8.70971 -3.01813 -3.80776 30.75266 -7.35398 26.69586 -27.82385 -6.58662 0.72036 2.60046
0.09928 -0.02281 0.1004 -176.14859 -23.33771 6.26756 36.73104 -0.14223 -2.87055 -23.16801 -15.08499 -2.11993 -60.20176 -45.38647 26.31994 93.58817 78.4935 -9.55151 -1.48001 -62.56228 26.17937 5.88172 108.35925 -108.21035 21.0915 -3.65833 52.96573 2.71619 -23.50848 -54.4963 -8.74047 -3.00121 -3.80206 31.00553 -7.05129 25.18052 -27.73467 -6.55927 0.83032 2.65045
0.10137 -0.02125 0.09927 -176.04882 -23.38056 5.7232 36.30715 0.05539 -2.82502 -23.3647 -14.97603 -2.11993 -59.54322 -45.21244 27.5263 93.22357 78.68655 -9.83425 -1.70284 -62.56559 25.23332 6.46776 108.48245 -108.2095 24.79638 -3.72606 53.38464 2.76854 -24.23413 -51.51651 -8.75475 -2.99414 -3.80023 31.21928 -6.73416 23.80449 -27.64171 -6.53802 0.92676 2.69425
0.10348 -0.01965 0.09812 -175.95158 -23.40136 5.19102 35.87937 0.25362 -2.76822 -23.59352 -14.86524 -2.11993 -58.77868 -45.24809 29.08812 92.88317 78.91005 -10.22104 -1.95141 -62.5694 24.01995 7.4781 108.83536 -108.75414 29.80637 -3.87919 53.81472 2.79303 -25.12073 -48.62982 -8.77544 -2.99018 -3.8004 31.40999 -6.47993 22.24484 -27.50891 -6.50983 1.04201 2.74648
0.10556 -0.01812 0.09702 -175.84929 -23.48245 4.62517 35.46401 0.45368 -2.73239 -23.73208 -14.75817 -2.11993 -58.19563 -44.83067 29.87085 92.46066 79.18621 -10.22739 -2.15771 -62.56531 23.45554 7.59743 108.68647 -107.96645 32.28986 -3.80765 54.20241 2.86679 -25.68948 -45.38622 -8.79137 -2.97381 -3.79399 31.67227 -6.0965 21.01423 -27.46459 -6.49353 1.12322 2.78353
0.10753 -0.01686 0.09608 -175.73083 -23.70884 3.97244 35.06773 0.6611 -2.75641 -23.6454 -14.66011 -2.11993 -58.18042 -43.10771 28.48318 91.82951 79.49601 -9.29215 -2.22844 -62.5678 24.49688 5.33757 107.0948 -103.45768 27.50328 -3.15476 54.47221 3.12085 -25.37019 -41.2194 -8.78919 -2.93157 -3.77312 32.10546 -5.34251 20.78184 -27.67275 -6.51397 1.10217 2.77487
0.10945 -0.01568 0.09519 -175.60854 -23.99515 3.28839 34.68629 0.86828 -2.80056 -23.47249 -14.56552 -2.11993 -58.34944 -40.94415 26.32989 91.12552 79.84327 -8.00764 -2.2564 -62.5671 26.18918 2.1775 105.02203 -97.68634 20.17203 -2.28406 54.706 3.41753 -24.72474 -36.74607 -8.78154 -2.87712 -3.74573 32.60766 -4.46168 20.881 -27.96606 -6.54642 1.04688 2.75092
0.11137 -0.01445 0.09429 -175.49038 -24.25878 2.62145 34.30654 1.07098 -2.8345 -23.341 -14.46942 -2.11993 -58.41555 -39.02896 24.569 90.46782 80.17256 -6.91899 -2.30835 -62.56513 27.65533 -0.62481 103.23672 -92.66832 14.06725 -1.51775 54.97339 3.66857 -24.21961 -32.49673 -8.7748 -2.82628 -3.72032 33.08028 -3.64859 20.8038 -28.2106 -6.57231 1.00957 2.73499
0.1134 -0.01327 0.09335 -175.3614 -24.50549 1.94054 33.89113 1.29381 -2.87405 -23.19643 -14.37312 -2.11993 -58.55409 -36.90614 22.61269 89.7481 80.5225 -5.64602 -2.34188 -62.5716 28.86795 -3.23902 101.16106 -86.8656 7.67055 -0.72005 55.16942 4.03028 -23.75069 -27.85985 -8.77437 -2.78253 -3.69854 33.54944 -2.79233 20.82801 -28.4992 -6.60242 0.9627 2.71483
0.11518 -0.01201 0.0925 -175.25477 -24.80054 1.28229 33.55385 1.47427 -2.90529 -23.05984 -14.27807 -2.11993 -58.5913 -35.11438 20.88556 89.14343 80.83173 -4.68765 -2.40409 -62.56075 30.72344 -6.4241 99.57041 -82.40288 1.29658 0.05918 55.50088 4.17136 -23.12827 -23.97104 -8.76078 -2.72179 -3.66802 34.04014 -1.99644 20.72203 -28.71524 -6.62682 0.9274 2.69976
0.11631 -0.01049 0.09189 -175.20506 -25.21763 0.69045 33.42517 1.5387 -2.92137 -22.9685 -14.18518 -2.11993 -58.27234 -34.32657 19.9663 88.86563 81.02222 -4.64372 -2.54536 -62.50427 34.49621 -11.26031 99.50512 -82.01049 -4.64471 0.75306 56.26571 3.69652 -22.15757 -22.19918 -8.69748 -2.61394 -3.61281 34.57963 -1.39419 20.17915 -28.71546 -6.63161 0.93194 2.70219
0.11719 -0.00888 0.09135 -175.17883 -25.68042 0.12342 33.37538 1.56018 -2.9265 -22.88823 -14.0935 -2.11993 -57.85123 -33.8913 19.30742 88.70883 81.16787 -4.93751 -2.71791 -62.43033 38.83704 -16.58604 99.93338 -83.00342 -10.43176 1.41651 57.15888 2.99743 -21.04519 -21.20051 -8.62343 -2.49007 -3.54945 35.13682 -0.85804 19.49335 -28.63868 -6.63044 0.94937 2.7103
0.11816 -0.0073 0.09077 -175.14595 -26.11987 -0.45227 33.29153 1.60068 -2.92775 -22.80215 -14.00151 -2.11993 -57.49887 -33.30631 18.53821 88.50265 81.3294 -5.10844 -2.88386 -62.36432 42.71622 -21.49223 100.09071 -83.3266 -16.1279 2.08028 57.96089 2.39881 -19.99841 -19.8655 -8.56417 -2.37582 -3.49136 35.68129 -0.29414 18.87264 -28.59333 -6.63261 0.96102 2.71591
0.1192 -0.00577 0.09026 -175.09698 -26.57226 -1.04014 33.19999 1.64348 -2.96521 -22.71664 -13.90855 -2.11993 -57.06057 -32.65992 17.70799 88.26882 81.51023 -5.14483 -3.01948 -62.29949 47.47065 -27.25622 100.42487 -83.77477 -22.593 2.80808 58.90116 1.80831 -18.93016 -18.44992 -8.4641 -2.2515 -3.42658 36.24777 0.28458 18.26613 -28.56557 -6.63254 0.97088 2.72053
0.12005 -0.00411 0.0896 -175.08586 -27.00782 -1.59634 33.14382 1.67105 -2.92676 -22.63329 -13.81794 -2.11993 -56.77212 -32.23298 17.07716 88.12393 81.64133 -5.53705 -3.22213 -62.22643 50.53696 -31.34517 100.51818 -84.30819 -27.38562 3.39332 59.58323 1.14639 -17.88352 -17.39722 -8.44504 -2.14419 -3.37368 36.77196 0.81418 17.5876 -28.48232 -6.63554 0.98833 2.72892
0.12046 -0.00208 0.08854 -175.18506 -27.385 -2.07052 33.15918 1.66894 -2.66002 -22.55706 -13.73262 -2.11993 -56.94321 -32.30934 16.93419 88.18058 81.63044 -6.91129 -3.6385 -62.14862 48.72669 -30.62379 99.7935 -84.74454 -27.59599 3.5824 59.53061 0.3489 -16.87724 -17.09677 -8.66508 -2.09058 -3.35751 37.17211 1.23181 16.78348 -28.25934 -6.64885 1.02028 2.7448
0.12067 7e-05 0.08732 -175.31967 -27.74355 -2.51346 33.20876 1.65262 -2.32069 -22.48227 -13.64973 -2.11993 -57.26371 -32.5988 16.98707 88.32488 81.57341 -8.61836 -4.11527 -62.05997 45.21037 -28.20861 98.81723 -85.2233 -26.11692 3.62919 59.21188 -0.51351 -15.90835 -17.14714 -8.96451 -2.05421 -3.35327 37.52912 1.60064 15.90549 -27.9837 -6.66536 1.05997 2.76454
0.12095 0.00215 0.08616 -175.43021 -28.11073 -2.97117 33.24688 1.64159 -2.02905 -22.40479 -13.56635 -2.11993 -57.50147 -32.80483 16.95292 88.4399 81.54797 -10.1212 -4.54004 -61.96814 42.51967 -26.60564 97.98047 -85.68595 -25.3986 3.74729 59.00909 -1.35174 -14.96057 -17.07905 -9.21939 -2.00816 -3.34238 37.90761 1.98574 15.0314 -27.73529 -6.68011 1.09875 2.78372
0.12135 0.00431 0.08508 -175.57421 -28.47864 -3.42634 33.26986 1.634 -1.67684 -22.33652 -13.48059 -2.11993 -57.79905 -32.96988 16.91705 88.51772 81.47755 -11.85971 -5.06705 -61.91249 39.63041 -24.83631 97.0569 -86.18618 -24.70284 3.83888 58.83271 -2.17815 -13.85067 -16.86733 -9.51019 -1.96928 -3.33641 38.27944 2.39193 14.26762 -27.4705 -6.69589 1.12792 2.79847
